<svg version="1.1" id="svg2196" xml:space="preserve" width="682.66669" height="682.66669" viewBox="0 0 682.66669 682.66669" xmlns="http://www.w3.org/2000/svg"><defs id="defs2200"><clipPath clipPathUnits="userSpaceOnUse" id="clipPath2210"><path d="M 0,512 H 512 V 0 H 0 Z" id="path2208"></path></clipPath></defs><g id="g2202" transform="matrix(1.3333333,0,0,-1.3333333,0,682.66667)"><g id="g2204"><g id="g2206" clip-path="url(#clipPath2210)"><g id="g2212" transform="translate(311.9868,50)"><path d="M 0,0 -88.324,-40 H 88.324 Z" style="fill:none;stroke:#000000;stroke-width:20;stroke-linecap:butt;stroke-linejoin:round;stroke-miterlimit:10;stroke-dasharray:none;stroke-opacity:1" id="path2214"></path></g><g id="g2216" transform="translate(318,390.0273)"><path d="M 0,0 H 170.635 L -6.013,-190.863 -182.661,0 H -84" style="fill:none;stroke:#000000;stroke-width:20;stroke-linecap:round;stroke-linejoin:round;stroke-miterlimit:10;stroke-dasharray:none;stroke-opacity:1" id="path2218"></path></g><g id="g2220" transform="translate(286,390.0273)"><path d="m 0,0 c 0,-5.523 -4.477,-10 -10,-10 -5.523,0 -10,4.477 -10,10 0,5.522 4.477,10 10,10 C -4.477,10 0,5.522 0,0" style="fill:#000000;fill-opacity:1;fill-rule:nonzero;stroke:none" id="path2222"></path></g><g id="g2224" transform="translate(311.9868,199.1641)"><path d="M 0,0 V -149.164" style="fill:none;stroke:#000000;stroke-width:20;stroke-linecap:butt;stroke-linejoin:round;stroke-miterlimit:10;stroke-dasharray:none;stroke-opacity:1" id="path2226"></path></g><g id="g2228" transform="translate(191.729,486.9385)"><path d="m 0,0 c -37.596,-64.605 -75.192,-129.211 -112.789,-193.816 -53.162,30.936 -71.451,100.14 -40.514,153.302 C -122.366,12.648 -53.162,30.937 0,0 Z" style="fill:none;stroke:#000000;stroke-width:20;stroke-linecap:butt;stroke-linejoin:round;stroke-miterlimit:10;stroke-dasharray:none;stroke-opacity:1" id="path2230"></path></g><g id="g2232" transform="translate(135.3389,390.0273)"><path d="M 0,0 -108.196,-28.594" style="fill:none;stroke:#000000;stroke-width:20;stroke-linecap:butt;stroke-linejoin:round;stroke-miterlimit:10;stroke-dasharray:none;stroke-opacity:1" id="path2234"></path></g><g id="g2236" transform="translate(106.7456,498.2227)"><path d="M 0,0 28.593,-108.195" style="fill:none;stroke:#000000;stroke-width:20;stroke-linecap:butt;stroke-linejoin:round;stroke-miterlimit:10;stroke-dasharray:none;stroke-opacity:1" id="path2238"></path></g><g id="g2240" transform="translate(135.3389,390.0273)"><path d="M 0,0 -96.911,56.396" style="fill:none;stroke:#000000;stroke-width:20;stroke-linecap:butt;stroke-linejoin:round;stroke-miterlimit:10;stroke-dasharray:none;stroke-opacity:1" id="path2242"></path></g><g id="g2244" transform="translate(311.9868,267.1338)"><path d="M 0,0 176.648,190.863" style="fill:none;stroke:#000000;stroke-width:20;stroke-linecap:round;stroke-linejoin:round;stroke-miterlimit:10;stroke-dasharray:none;stroke-opacity:1" id="path2246"></path></g><g id="g2248" transform="translate(437.6074,334.8926)"><path d="M 0,0 H -251.248" style="fill:none;stroke:#000000;stroke-width:20;stroke-linecap:butt;stroke-linejoin:round;stroke-miterlimit:10;stroke-dasharray:none;stroke-opacity:1" id="path2250"></path></g></g></g></g></svg>