<svg version="1.1" xml:space="preserve" width="682.66669" height="682.66669" viewBox="0 0 682.66669 682.66669" xmlns="http://www.w3.org/2000/svg"><defs id="defs13"><clipPath clipPathUnits="userSpaceOnUse" id="clipPath23"><path d="M 0,512 H 512 V 0 H 0 Z" id="path21"></path></clipPath></defs><g id="g15" transform="matrix(1.3333333,0,0,-1.3333333,0,682.66667)"><g id="g17"><g id="g19" clip-path="url(#clipPath23)"><g id="g25" transform="translate(100.1936,39.1833)"><path d="m 0,0 c 29.512,-18.492 64.411,-29.183 101.806,-29.183 106.039,0 192,85.961 192,192 v 104 h -384 v -104 c 0,-36.258 10.05,-70.167 27.516,-99.096" style="fill:none;stroke:#000000;stroke-width:20;stroke-linecap:round;stroke-linejoin:round;stroke-miterlimit:10;stroke-dasharray:none;stroke-opacity:1" id="path27"></path></g><g id="g29" transform="translate(361.9829,94.9141)"><path d="m 0,0 h 29.403 c 38.897,0 70.543,31.646 70.543,70.543 0,38.022 -30.238,69.115 -67.929,70.495 m 0,40.017 C 91.768,179.662 139.946,130.623 139.946,70.543 139.946,9.589 90.356,-40 29.403,-40 h -65.154" style="fill:none;stroke:#000000;stroke-width:20;stroke-linecap:round;stroke-linejoin:round;stroke-miterlimit:10;stroke-dasharray:none;stroke-opacity:1" id="path31"></path></g><g id="g33" transform="translate(324.3333,120.125)"><path d="m 0,0 h -99.202 v 89.764 l 32.117,32.118 h 34.968 C -19.575,109.339 -12.543,102.307 0,89.764 Z" style="fill:none;stroke:#000000;stroke-width:20;stroke-linecap:round;stroke-linejoin:round;stroke-miterlimit:10;stroke-dasharray:none;stroke-opacity:1" id="path35"></path></g><g id="g37" transform="translate(274.7323,224.3333)"><path d="M 0,0 V 97.667" style="fill:none;stroke:#000000;stroke-width:20;stroke-linecap:round;stroke-linejoin:round;stroke-miterlimit:10;stroke-dasharray:none;stroke-opacity:1" id="path39"></path></g><g id="g41" transform="translate(77.7634,465.6565)"><path d="M 0,0 H 34.305 C 67.636,0 94.656,-27.02 94.656,-60.351 V -94.656 H 60.351 C 27.02,-94.656 0,-67.636 0,-34.305 Z" style="fill:none;stroke:#000000;stroke-width:20;stroke-linecap:round;stroke-linejoin:round;stroke-miterlimit:10;stroke-dasharray:none;stroke-opacity:1" id="path43"></path></g><g id="g45" transform="translate(169.5515,373.8684)"><path d="M 0,0 -36.879,36.879" style="fill:none;stroke:#000000;stroke-width:20;stroke-linecap:round;stroke-linejoin:round;stroke-miterlimit:10;stroke-dasharray:none;stroke-opacity:1" id="path47"></path></g><g id="g49" transform="translate(326.2366,502)"><path d="m 0,0 v -34.305 c 0,-33.331 -27.02,-60.351 -60.351,-60.351 h -34.305 v 34.305 C -94.656,-27.02 -67.636,0 -34.305,0 Z" style="fill:none;stroke:#000000;stroke-width:20;stroke-linecap:round;stroke-linejoin:round;stroke-miterlimit:10;stroke-dasharray:none;stroke-opacity:1" id="path51"></path></g><g id="g53" transform="translate(234.4485,410.2119)"><path d="M 0,0 36.879,36.879" style="fill:none;stroke:#000000;stroke-width:20;stroke-linecap:round;stroke-linejoin:round;stroke-miterlimit:10;stroke-dasharray:none;stroke-opacity:1" id="path55"></path></g><g id="g57" transform="translate(225.1303,199.5808)"><path d="m 0,0 c -8.203,5.228 -15.967,11.423 -23.13,18.586 h -0.001 c -53.019,53.019 -138.98,53.019 -191.999,0" style="fill:none;stroke:#000000;stroke-width:20;stroke-linecap:round;stroke-linejoin:round;stroke-miterlimit:10;stroke-dasharray:none;stroke-opacity:1" id="path59"></path></g><g id="g61" transform="translate(394,218.1668)"><path d="M 0,0 V 0 C -19.773,-19.773 -44.128,-32.172 -69.648,-37.197" style="fill:none;stroke:#000000;stroke-width:20;stroke-linecap:round;stroke-linejoin:round;stroke-miterlimit:10;stroke-dasharray:none;stroke-opacity:1" id="path63"></path></g><g id="g65" transform="translate(65.1146,67.3646)"><path d="M 0,0 V 0" style="fill:none;stroke:#000000;stroke-width:20;stroke-linecap:round;stroke-linejoin:round;stroke-miterlimit:10;stroke-dasharray:none;stroke-opacity:1" id="path67"></path></g></g></g></g></svg>