<svg enable-background="new 0 0 64 64" height="512" viewBox="0 0 64 64" width="512" xmlns="http://www.w3.org/2000/svg"><path d="m5.362 38.843 1.969.355c.113-.628.255-1.256.421-1.865l-1.93-.525c-.181.665-.336 1.349-.46 2.035z"></path><path d="m5 42.952.443.021 1.556-.094c0-.588.026-1.19.079-1.791l-1.992-.174c-.058.659-.087 1.32-.086 2.038z"></path><path d="m6.452 34.823 1.879.684c.219-.601.465-1.196.73-1.771l-1.816-.839c-.288.625-.556 1.273-.793 1.926z"></path><path d="m40.485 22.045-.971 1.748c.569.316 1.134.664 1.68 1.035l1.123-1.655c-.594-.404-1.211-.783-1.832-1.128z"></path><path d="m21.699 20.141.602 1.907c2.111-.665 4.32-1.002 6.563-1.002 3.039 0 5.979.607 8.737 1.804l.797-1.835c-3.013-1.307-6.22-1.969-9.534-1.969-2.447 0-4.858.369-7.165 1.095z"></path><path d="m10.98 53.364h2v2h-2z" transform="matrix(.707 -.707 .707 .707 -34.933 24.394)"></path><path d="m16.637 47.707h2v2h-2z" transform="matrix(.707 -.707 .707 .707 -29.275 26.737)"></path><path d="m13.809 50.535h2v2h-2z" transform="matrix(.707 -.707 .707 .707 -32.103 25.566)"></path><path d="m52 44.763v-1.763h-1c-1.657 0-2.95.281-3.973.631.554-.76.973-1.614.973-2.631 0-1.707-1.17-2.961-2.202-4.067-.507-.543-.985-1.056-1.265-1.551-.298-.528-.505-1.234-.723-1.981-.277-.946-.565-1.911-1.085-2.712l4.936-4.936c.213 1.764.339 3.809.339 6.247h2c0-11.895-2.891-15.613-5.213-18.602-1.558-2.002-2.787-3.585-2.787-7.398 0-1.654 1.346-3 3-3s3 1.346 3 3-1.346 3-3 3h-1v2h1c2.757 0 5-2.243 5-5s-2.243-5-5-5-5 2.243-5 5c0 4.499 1.558 6.504 3.208 8.626 1.315 1.693 2.73 3.531 3.68 7.004-5.032-4.238-11.31-6.562-17.931-6.584-5.815.016-11.364 1.764-16.034 5.039-.443-2.875-2.926-5.085-5.923-5.085-3.309 0-6 2.691-6 6 0 2.995 2.208 5.477 5.079 5.922-3.286 4.669-5.053 10.216-5.034 16.035.026 7.443 2.955 14.457 8.248 19.75l.707.707 1.968-1.968c5.205 1.015 12.105 1.554 20.032 1.554 15.405 0 31-2.748 31-8v-3.866h-.012c.002-.045.012-.089.012-.134 0-3.253-5.799-5.17-11-6.237zm9 6.237c0 2.506-11.032 6-29 6-5.194 0-10.225-.311-14.683-.903l3.097-3.097h.586c.625 0 .683.031 1.396.412 1.115.594 2.979 1.588 6.103 1.588 3.127 0 4.99-.994 6.105-1.59.711-.379.769-.41 1.392-.41.626 0 .684.031 1.398.411 1.113.595 2.976 1.589 6.104 1.589s4.991-.994 6.104-1.589c.714-.38.772-.411 1.398-.411h1v-6.192c7.075 1.504 9 3.376 9 4.192zm-37.212-1.373c.164.082.326.167.492.256.982.523 2.095 1.117 4.219 1.117 2.125 0 3.237-.594 4.22-1.118.887-.473 1.653-.882 3.277-.882 1.626 0 2.393.409 3.28.883.983.523 2.097 1.117 4.222 1.117s3.239-.594 4.222-1.117c.682-.364 1.297-.688 2.28-.819v2.022c-.449.096-.805.275-1.34.562-1.069.57-2.534 1.352-5.162 1.352s-4.093-.782-5.164-1.354c-.862-.459-1.256-.646-2.338-.646-1.08 0-1.472.187-2.336.647-1.069.571-2.534 1.353-5.161 1.353-2.624 0-4.091-.782-5.162-1.354-.427-.228-.739-.388-1.077-.492zm26.212-2.573c-1.494.153-2.408.629-3.222 1.063-.887.474-1.654.883-3.28.883s-2.393-.409-3.28-.883c-.983-.523-2.097-1.117-4.222-1.117-2.124 0-3.237.594-4.219 1.117-.887.474-1.653.883-3.278.883-1.594 0-2.362-.395-3.229-.856l1.488-1.488c.517.24.94.344 1.741.344 1.081 0 1.474-.187 2.337-.647 1.069-.571 2.534-1.353 5.16-1.353 2.628 0 4.093.782 5.164 1.354.862.459 1.256.646 2.338.646s1.476-.187 2.34-.647c.926-.494 2.147-1.146 4.162-1.312zm-13.011-10.629c1.818.785 3.011 2.551 3.011 4.575 0 .87-.227 1.701-.647 2.444-.917-.256-2.014-.444-3.357-.444-3.126 0-4.989.994-6.103 1.589-.712.38-.77.411-1.394.411-.031 0-.056-.001-.084-.001zm4.902-2.464c.24.823.489 1.674.9 2.403.396.703.98 1.328 1.545 1.934.855.917 1.664 1.783 1.664 2.702s-.809 1.785-1.664 2.702c-.385.412-.759.844-1.096 1.293-.399-.015-.539-.088-1.14-.407-.245-.131-.533-.282-.857-.437.492-.97.757-2.038.757-3.151 0-2.567-1.376-4.835-3.527-6.059l2.778-2.778c.255.524.453 1.16.64 1.798zm-34.891-8.961c-2.206 0-4-1.794-4-4s1.794-4 4-4 4 1.794 4 4c0 .192-.025.398-.062.613-.596.504-1.178 1.029-1.737 1.588s-1.085 1.141-1.59 1.738c-.215.036-.42.061-.611.061zm3.615-.385c4.884-4.884 11.359-7.569 18.247-7.569h.089c6.578.022 12.797 2.489 17.621 6.967l-36.558 36.559c-9.44-10.181-9.249-26.106.601-35.957zm21.385 36.385c-7.134 0-13.409-.438-18.316-1.27l1.868-1.868c4.907.743 10.576 1.138 16.448 1.138 12.102 0 24.316-1.697 29-4.97v.97c0 2.506-11.032 6-29 6z"></path><path d="m57.225 24.895c-2.918 2.363-6.225 5.042-6.225 16.105h2c0-10.11 2.788-12.368 5.483-14.551 2.221-1.799 4.517-3.658 4.517-9.449 0-2.757-2.243-5-5-5s-5 2.243-5 5 2.243 5 5 5h1v-2h-1c-1.654 0-3-1.346-3-3s1.346-3 3-3 3 1.346 3 3c0 4.837-1.666 6.186-3.775 7.895z"></path></svg>